# AST/ASF file generated using VICON BodyLanguage
# -----------------------------------------------
:version 1.10
:name VICON
:units
  mass 1.0
  length 0.45
  angle deg
:documentation
   .ast/.asf automatically generated from VICON data using
   VICON BodyBuilder and BodyLanguage model FoxedUp or BRILLIANT.MOD
:root
   order TX TY TZ RX RY RZ
   axis XYZ
   position 0 0 0  
   orientation 0 0 0 
:bonedata
  begin
     id 1 
     name lhipjoint
     direction 0.606768 -0.715223 0.346827 
     length 2.41543 
     axis 0 0 0  XYZ
  end
  begin
     id 2 
     name lfemur
     direction 0.34202 -0.939693 0  
     length 7.2778  
     axis 0 0 20  XYZ
    dof rx ry rz
    limits (-160.0 20.0)
           (-70.0 70.0)
           (-60.0 70.0)
  end
  begin
     id 3 
     name ltibia
     direction 0.34202 -0.939693 0   
     length 7.61811   
     axis 0 0 20   XYZ
    dof rx
    limits (-10.0 170.0)
  end
  begin
     id 4 
     name lfoot
     direction 0.0823924 -0.226371 0.97055   
     length 2.33618   
     axis -90 7.62852e-016 20   XYZ
    dof rx rz
    limits (-45.0 90.0)
           (-70.0 20.0)
  end
  begin
     id 5 
     name ltoes
     direction 1.53554e-011 -4.21934e-011 1   
     length 1.17015   
     axis -90 7.62852e-016 20   XYZ
    dof rx
    limits (-90.0 20.0)
  end
  begin
     id 6 
     name rhipjoint
     direction -0.6077 -0.714582 0.346516   
     length 2.4176  
     axis 0 0 0  XYZ 
  end
  begin
     id 7 
     name rfemur
     direction -0.34202 -0.939693 0   
     length 7.28127   
     axis 0 0 -20   XYZ
    dof rx ry rz
    limits (-160.0 20.0)
           (-70.0 70.0)
           (-70.0 60.0)
  end
  begin
     id 8 
     name rtibia
     direction -0.34202 -0.939693 0   
     length 7.77648   
     axis 0 0 -20   XYZ
    dof rx
    limits (-10.0 170.0)
 end
 begin
     id 9 
     name rfoot
     direction -0.0809463 -0.222398 0.97159   
     length 2.37533  
     axis -90 -7.62852e-016 -20   XYZ
    dof rx rz
    limits (-45.0 90.0)
           (-20.0 70.0)
  end
  begin
     id 10 
     name rtoes
     direction -1.53568e-011 -4.21714e-011 1   
     length 1.18972   
     axis -90 -7.62852e-016 -20   XYZ
    dof rx
    limits (-90.0 20.0)
  end
  begin
     id 11 
     name lowerback
     direction 0.010968 0.991932 -0.126297   
     length 2.21698   
     axis 0 0 0   XYZ
    dof rx ry rz
    limits (-20.0 45.0)
           (-30.0 30.0)
           (-30.0 30.0)
  end
  begin
     id 12 
     name upperback
     direction 0.0167007 0.997503 -0.0686276   
     length 2.22371   
     axis 0 0 0   XYZ
    dof rx ry rz
    limits (-20.0 45.0)
           (-30.0 30.0)
           (-30.0 30.0)
  end
  begin
     id 13 
     name thorax
     direction 0.0111721 0.999885 -0.0102878   
     length 2.25242   
     axis 0 0 0   XYZ
    dof rx ry rz
    limits (-20.0 45.0)
           (-30.0 30.0)
           (-30.0 30.0)
  end
  begin
     id 14 
     name lowerneck
     direction -0.0120265 0.990428 0.137508   
     length 1.57674   
     axis 0 0 0   XYZ
    dof rx ry rz
    limits (-20.0 45.0)
           (-30.0 30.0)
           (-30.0 30.0)
  end
  begin
     id 15 
     name upperneck
     direction 0.0175669 0.998907 0.0433089   
     length 1.5618   
     axis 0 0 0   XYZ
    dof rx ry rz
    limits (-20.0 45.0)
           (-30.0 30.0)
           (-30.0 30.0)
  end
  begin
     id 16
     name head
     direction 0.00754609 0.99997 0.00185367  
     length 1.60579  
     axis 0 0 0   XYZ
    dof rx ry rz
    limits (-20.0 45.0)
           (-30.0 30.0)
           (-30.0 30.0)
  end
  begin
     id 17 
     name lclavicle
     direction 0.885866 0.429166 -0.176231  
     length 3.44967  
     axis 0 0 0   XYZ
    dof ry rz
    limits (-20.0 10.0)
           (0.0 20.0)
  end
  begin
     id 18 
     name lhumerus
     direction 1 -4.48973e-011 -1.90255e-027   
     length 5.20607   
     axis 180 -30 -90   XYZ
    dof rx ry rz
    limits (-60.0 90.0)
           (-90.0 90.0)
           (-90.0 90.0)
  end
  begin
     id 19
     name lradius
     direction 1 -4.48956e-011 9.87925e-027   
     length 3.39961   
     axis 180 -30 -90   XYZ
    dof rx
    limits (-10.0 170.0)
  end
  begin
     id 20
     name lwrist
     direction 1 -4.48985e-011 1.73247e-026   
     length 1.6998   
     axis -9.60847e-015 90 90   XYZ
    dof ry
    limits (-180.0 0.0)
 end
  begin
     id 21 
     name lhand
     direction 1 -4.48798e-011 3.46119e-026   
     length 0.519693   
     axis -2.21073e-014 90 90   XYZ
    dof rx rz
    limits (-90.0 90.0)
           (-45.0 45.0)
  end
  begin
     id 22 
     name lfingers
     direction 1 -4.48938e-011 6.92797e-026   
     length 0.41899   
     axis -4.42155e-014 90 90   XYZ
    dof rx
    limits (0.0 90.0)
  end
  begin
     id 23
     name lthumb
     direction 0.707107 -6.34952e-011 0.707107   
     length 0.601588   
     axis -90 45 6.0103e-014   XYZ
    dof rx rz
    limits (-45.0 45.0)
           (-45.0 45.0)
  end
  begin
     id 24 
     name rclavicle
     direction -0.866736 0.456792 -0.200276   
     length 3.45032  
     axis 0 0 0   XYZ 
    dof ry rz
    limits (-10.0 20.0)
           (-20.0 0.0)
  end
  begin
     id 25 
     name rhumerus
     direction -1 -4.4897e-011 8.65094e-028  
     length 5.32214   
     axis 180 30 90   XYZ
    dof rx ry rz
    limits (-90.0 60.0)
           (-90.0 90.0)
           (-90.0 90.0)
  end
  begin
     id 26 
     name rradius
     direction -1 -4.48987e-011 1.08427e-026   
     length 3.51208   
     axis 180 30 90   XYZ
    dof rx
    limits (-10.0 170.0)
  end
  begin
     id 27 
     name rwrist
     direction -1 -4.48961e-011 1.73222e-026   
     length 1.75604   
     axis -9.60847e-015 -90 -90   XYZ
    dof ry
    limits (-180.0 0.0)
  end
  begin
     id 28
     name rhand
     direction -1 -4.48895e-011 3.46314e-026   
     length 0.586681   
     axis -2.21073e-014 -90 -90   XYZ
    dof rx rz
    limits (-90.0 90.0)
           (-45.0 45.0)
  end
  begin
     id 29
     name rfingers
     direction -1 -4.48968e-011 6.92916e-026   
     length 0.472997   
     axis -4.42155e-014 -90 -90   XYZ
    dof rx
    limits (0.0 90.0)
  end
  begin
     id 30
     name rthumb
     direction -0.707107 -6.34848e-011 0.707107   
     length 0.679133   
     axis -90 -45 -6.0103e-014   XYZ
    dof rx rz
    limits (-45.0 45.0)
           (-45.0 45.0)
  end
:hierarchy
  begin
    root lhipjoint rhipjoint lowerback
    lhipjoint lfemur
    lfemur ltibia
    ltibia lfoot
    lfoot ltoes
    rhipjoint rfemur
    rfemur rtibia
    rtibia rfoot
    rfoot rtoes
    lowerback upperback
    upperback thorax
    thorax lowerneck lclavicle rclavicle
    lowerneck upperneck
    upperneck head
    lclavicle lhumerus
    lhumerus lradius
    lradius lwrist
    lwrist lhand lthumb
    lhand lfingers
    rclavicle rhumerus
    rhumerus rradius
    rradius rwrist
    rwrist rhand rthumb
    rhand rfingers
  end

#!OML:ASF H:\Dans Jumps\Project 1\Capture day 1\Session 1\subject.ASF
:FULLY-SPECIFIED
:DEGREES
41
root 0.379526 17.4892 -13.8211 8.40328 -2.70273 -2.51098
lowerback -1.13829 -0.117022 1.70724
upperback 3.54387 -0.276223 1.62307
thorax 4.28972 -0.110535 0.703978
lowerneck -14.2305 1.04678 -1.88089
upperneck 30.5685 2.07759 -0.148471
head 12.4598 0.676768 0.572945
rclavicle 1.54058e-015 -6.55989e-015
rhumerus -21.0524 -16.468 -79.1706
rradius 25.1298
rwrist 32.2375
rhand -18.9553 -26.315
rfingers 7.12502
rthumb 7.34831 -56.1674
lclavicle 1.54058e-015 -6.55989e-015
lhumerus -22.9439 3.92372 83.9419
lradius 18.6539
lwrist 1.59165
lhand -22.9982 -3.38957
lfingers 7.12502
lthumb 3.44482 26.5623
rfemur -16.4331 -2.94235 21.2333
rtibia 22.7733
rfoot -14.723 -1.02569
rtoes 2.63807
lfemur -15.7794 8.40083 -17.994
ltibia 22.2119
lfoot -11.4574 8.21416
ltoes -8.61334
42
root 0.376565 17.4902 -13.8184 8.40377 -2.62616 -2.50382
lowerback -1.16267 -0.15556 1.72022
upperback 3.54361 -0.328985 1.62806
thorax 4.30329 -0.136351 0.699272
lowerneck -14.2452 1.04524 -1.88078
upperneck 30.6063 2.0767 -0.150473
head 12.4783 0.675411 0.57241
rclavicle -2.23633e-015 1.47101e-014
rhumerus -20.9959 -16.4577 -79.0933
rradius 25.0947
rwrist 32.288
rhand -18.9657 -26.325
rfingers 7.12502
rthumb 7.33829 -56.1777
lclavicle -2.23633e-015 1.47101e-014
lhumerus -22.8596 3.79082 84.1048
lradius 18.7223
lwrist 1.67397
lhand -22.9998 -3.45173
lfingers 7.12502
lthumb 3.44325 26.5002
rfemur -16.4059 -2.98827 21.2427
rtibia 22.7522
rfoot -14.7218 -1.06852
rtoes 2.62957
lfemur -15.7619 8.38662 -17.9871
ltibia 22.1689
lfoot -11.4616 8.14693
ltoes -8.60367
43
root 0.373748 17.4912 -13.8158 8.39813 -2.54489 -2.4951
lowerback -1.17962 -0.193195 1.72622
upperback 3.54317 -0.380174 1.63532
thorax 4.31248 -0.161685 0.700873
lowerneck -14.2455 1.0445 -1.86557
upperneck 30.6286 2.07641 -0.166058
head 12.4879 0.674597 0.563941
rclavicle -2.13694e-015 2.68359e-014
rhumerus -20.9393 -16.4642 -79.0088
rradius 25.0572
rwrist 32.3525
rhand -18.9686 -26.3287
rfingers 7.12502
rthumb 7.33546 -56.1815
lclavicle -2.13694e-015 2.68359e-014
lhumerus -22.7798 3.65252 84.2682
lradius 18.8018
lwrist 1.83008
lhand -23.0164 -3.53668
lfingers 7.12502
lthumb 3.42729 26.4155
rfemur -16.3711 -3.04224 21.2503
rtibia 22.7294
rfoot -14.7216 -1.10792
rtoes 2.61282
lfemur -15.7359 8.37357 -17.981
ltibia 22.1208
lfoot -11.4658 8.0717
ltoes -8.60482
44
root 0.371073 17.4921 -13.8134 8.38774 -2.46172 -2.48175
lowerback -1.18894 -0.22957 1.72209
upperback 3.5422 -0.42914 1.64376
thorax 4.31687 -0.186306 0.709475
lowerneck -14.2435 1.04161 -1.85633
upperneck 30.6483 2.0719 -0.173156
head 12.4958 0.672405 0.559081
rclavicle -2.08724e-015 -1.31198e-014
rhumerus -20.8857 -16.4748 -78.9202
rradius 25.027
rwrist 32.4087
rhand -18.9533 -26.3369
rfingers 7.12502
rthumb 7.35021 -56.1892
lclavicle -2.08724e-015 -1.31198e-014
lhumerus -22.6999 3.50034 84.4336
lradius 18.8931
lwrist 2.05814
lhand -23.0333 -3.59838
lfingers 7.12502
lthumb 3.4109 26.3541
rfemur -16.3312 -3.09994 21.2519
rtibia 22.7062
rfoot -14.7227 -1.1434
rtoes 2.61183
lfemur -15.7027 8.36221 -17.9799
ltibia 22.0668
lfoot -11.469 7.99206
ltoes -8.61195
45
root 0.36856 17.4931 -13.8112 8.37418 -2.37968 -2.46536
lowerback -1.19095 -0.264208 1.71001
upperback 3.53901 -0.475297 1.65367
thorax 4.31487 -0.209868 0.724193
lowerneck -14.2482 1.03498 -1.8703
upperneck 30.6781 2.06125 -0.156277
head 12.5087 0.667783 0.566607
rclavicle 2.98177e-016 2.24627e-014
rhumerus -20.837 -16.4863 -78.8282
rradius 25.0051
rwrist 32.4492
rhand -18.9337 -26.3412
rfingers 7.12502
rthumb 7.36914 -56.1929
lclavicle 2.98177e-016 2.24627e-014
lhumerus -22.6287 3.328 84.6013
lradius 19.0041
lwrist 2.33161
lhand -23.057 -3.66206
lfingers 7.12502
lthumb 3.38802 26.2908
rfemur -16.2885 -3.15888 21.2493
rtibia 22.6833
rfoot -14.7251 -1.17518
rtoes 2.6193
lfemur -15.6636 8.35221 -17.9828
ltibia 22.0075
lfoot -11.4694 7.91252
ltoes -8.62198
46
root 0.36618 17.4942 -13.8093 8.36117 -2.2982 -2.44799
lowerback -1.18857 -0.296771 1.6931
upperback 3.53323 -0.518361 1.66458
thorax 4.30775 -0.232103 0.742799
lowerneck -14.2657 1.02405 -1.90118
upperneck 30.7221 2.04312 -0.118588
head 12.5296 0.660369 0.58412
rclavicle 3.8266e-015 -3.37934e-015
rhumerus -20.7935 -16.5022 -78.7338
rradius 24.9939
rwrist 32.4738
rhand -18.9 -26.3478
rfingers 7.12502
rthumb 7.40166 -56.1983
lclavicle 3.8266e-015 -3.37934e-015
lhumerus -22.5603 3.12453 84.7706
lradius 19.1271
lwrist 2.63148
lhand -23.0745 -3.71562
lfingers 7.12502
lthumb 3.37111 26.2375
rfemur -16.2471 -3.21507 21.2447
rtibia 22.6611
rfoot -14.7286 -1.20776
rtoes 2.63065
lfemur -15.6238 8.34163 -17.9877
ltibia 21.9441
lfoot -11.4684 7.83395
ltoes -8.624
47
root 0.363981 17.4952 -13.8077 8.35131 -2.21959 -2.4321
lowerback -1.18547 -0.326755 1.67449
upperback 3.52507 -0.557912 1.67724
thorax 4.29782 -0.2527 0.764359
lowerneck -14.2913 1.00836 -1.94546
upperneck 30.7728 2.0181 -0.0680236
head 12.5548 0.649922 0.607998
rclavicle 1.49089e-015 -1.45113e-014
rhumerus -20.7524 -16.5148 -78.6395
rradius 24.9937
rwrist 32.47
rhand -18.8545 -26.369
rfingers 7.12502
rthumb 7.44561 -56.218
lclavicle 1.49089e-015 -1.45113e-014
lhumerus -22.4963 2.88805 84.9423
lradius 19.268
lwrist 2.93928
lhand -23.0731 -3.73149
lfingers 7.12502
lthumb 3.3725 26.2216
rfemur -16.209 -3.26774 21.2407
rtibia 22.6374
rfoot -14.7309 -1.23749
rtoes 2.65025
lfemur -15.5872 8.32904 -17.9925
ltibia 21.8801
lfoot -11.4654 7.76121
ltoes -8.61301
48
root 0.361976 17.4963 -13.8062 8.34427 -2.14306 -2.41846
lowerback -1.18521 -0.354233 1.65557
upperback 3.51757 -0.594271 1.69159
thorax 4.29026 -0.271737 0.787978
lowerneck -14.325 0.989276 -1.99607
upperneck 30.8243 1.98835 -0.011574
head 12.582 0.637391 0.634634
rclavicle 4.96962e-016 -5.1684e-015
rhumerus -20.7077 -16.5296 -78.5464
rradius 25.0008
rwrist 32.4433
rhand -18.8107 -26.392
rfingers 7.12502
rthumb 7.48791 -56.2395
lclavicle 4.96962e-016 -5.1684e-015
lhumerus -22.4336 2.62043 85.1151
lradius 19.4327
lwrist 3.23874
lhand -23.0496 -3.7172
lfingers 7.12502
lthumb 3.3952 26.2355
rfemur -16.1725 -3.31753 21.2382
rtibia 22.6102
rfoot -14.7309 -1.26686
rtoes 2.66326
lfemur -15.5546 8.31099 -17.996
ltibia 21.8184
lfoot -11.461 7.69833
ltoes -8.59891
49
root 0.360195 17.4974 -13.8048 8.34035 -2.07022 -2.41203
lowerback -1.18757 -0.377967 1.64204
upperback 3.51013 -0.62598 1.70825
thorax 4.28426 -0.288314 0.811185
lowerneck -14.3589 0.969666 -2.04066
upperneck 30.8706 1.95824 0.0381367
head 12.6073 0.62462 0.657587
rclavicle 8.44835e-016 -1.51076e-014
rhumerus -20.6637 -16.5428 -78.4551
rradius 25.0188
rwrist 32.3896
rhand -18.77 -26.424
rfingers 7.12502
rthumb 7.52715 -56.27
lclavicle 8.44835e-016 -1.51076e-014
lhumerus -22.3708 2.31839 85.2881
lradius 19.6141
lwrist 3.51819
lhand -23.0088 -3.68744
lfingers 7.12502
lthumb 3.4346 26.2646
rfemur -16.1372 -3.36191 21.2426
rtibia 22.5777
rfoot -14.7273 -1.29747
rtoes 2.65971
lfemur -15.5272 8.28714 -17.9924
ltibia 21.7616
lfoot -11.4563 7.64604
ltoes -8.57342
50
root 0.358642 17.4985 -13.8035 8.33882 -1.99953 -2.41142
lowerback -1.19317 -0.399141 1.63283
upperback 3.50363 -0.654625 1.72718
thorax 4.2811 -0.303248 0.834441
lowerneck -14.3904 0.951345 -2.07377
upperneck 30.907 1.9309 0.0742626
head 12.6284 0.612807 0.673689
rclavicle -3.8763e-015 8.94531e-015
rhumerus -20.6172 -16.5507 -78.3682
rradius 25.0462
rwrist 32.2955
rhand -18.7375 -26.4702
rfingers 7.12502
rthumb 7.55857 -56.3151
lclavicle -3.8763e-015 8.94531e-015
lhumerus -22.3072 1.98847 85.4603
lradius 19.8145
lwrist 3.77258
lhand -22.9588 -3.6455
lfingers 7.12502
lthumb 3.48286 26.3058
rfemur -16.1019 -3.40176 21.2522
rtibia 22.5397
rfoot -14.7215 -1.32677
rtoes 2.66894
lfemur -15.5047 8.25768 -17.9833
ltibia 21.7112
lfoot -11.4529 7.60325
ltoes -8.54008
51
root 0.357372 17.4996 -13.8023 8.33738 -1.93009 -2.41522
lowerback -1.2 -0.417146 1.62826
upperback 3.49896 -0.679309 1.74697
thorax 4.28052 -0.316055 0.856184
lowerneck -14.4075 0.93441 -2.09242
upperneck 30.9227 1.90573 0.0949376
head 12.6383 0.601989 0.681405
rclavicle 6.21202e-015 1.66979e-014
rhumerus -20.5651 -16.5631 -78.2858
rradius 25.0803
rwrist 32.1668
rhand -18.7141 -26.5311
rfingers 7.12502
rthumb 7.58112 -56.3752
lclavicle 6.21202e-015 1.66979e-014
lhumerus -22.2417 1.63325 85.6291
lradius 20.034
lwrist 3.99507
lhand -22.8991 -3.59424
lfingers 7.12502
lthumb 3.54056 26.3561
rfemur -16.0648 -3.43971 21.2656
rtibia 22.497
rfoot -14.713 -1.35754
rtoes 2.66197
lfemur -15.4856 8.22235 -17.9699
ltibia 21.6683
lfoot -11.4505 7.56893
ltoes -8.50777
52
root 0.356348 17.5005 -13.8011 8.33657 -1.86216 -2.4239
lowerback -1.20796 -0.431707 1.62912
upperback 3.4951 -0.699649 1.76709
thorax 4.28139 -0.326516 0.875422
lowerneck -14.4139 0.91856 -2.09835
upperneck 30.9239 1.88157 0.104561
head 12.6403 0.591922 0.682628
rclavicle -7.65321e-015 -6.55989e-015
rhumerus -20.5147 -16.5754 -78.2085
rradius 25.1258
rwrist 32.0104
rhand -18.7021 -26.6059
rfingers 7.12502
rthumb 7.59267 -56.4496
lclavicle -7.65321e-015 -6.55989e-015
lhumerus -22.174 1.25848 85.7914
lradius 20.2694
lwrist 4.19469
lhand -22.8348 -3.54697
lfingers 7.12502
lthumb 3.60266 26.4023
rfemur -16.028 -3.47321 21.2834
rtibia 22.4524
rfoot -14.7022 -1.39081
rtoes 2.65382
lfemur -15.4703 8.18461 -17.9518
ltibia 21.6322
lfoot -11.4503 7.53906
ltoes -8.47206
53
root 0.355564 17.5014 -13.7999 8.33637 -1.79773 -2.435
lowerback -1.218 -0.442834 1.63252
upperback 3.49237 -0.715579 1.78708
thorax 4.28458 -0.334683 0.893309
lowerneck -14.4204 0.902056 -2.11171
upperneck 30.9232 1.85609 0.122007
head 12.6414 0.581479 0.687927
rclavicle -7.05686e-015 1.98785e-016
rhumerus -20.4632 -16.5815 -78.1381
rradius 25.1821
rwrist 31.8189
rhand -18.6958 -26.6922
rfingers 7.12502
rthumb 7.59877 -56.5357
lclavicle -7.05686e-015 1.98785e-016
lhumerus -22.1043 0.872488 85.9453
lradius 20.5205
lwrist 4.38501
lhand -22.7773 -3.51738
lfingers 7.12502
lthumb 3.65818 26.431
rfemur -15.9927 -3.50094 21.3023
rtibia 22.4085
rfoot -14.6911 -1.42502
rtoes 2.65257
lfemur -15.4584 8.14707 -17.9321
ltibia 21.6024
lfoot -11.4527 7.51268
ltoes -8.43463
54
root 0.354956 17.5021 -13.7987 8.33678 -1.73602 -2.4467
lowerback -1.23022 -0.450822 1.63674
upperback 3.48956 -0.727364 1.80583
thorax 4.28888 -0.340732 0.909647
lowerneck -14.4271 0.884415 -2.12226
upperneck 30.9238 1.8281 0.139795
head 12.643 0.570302 0.692513
rclavicle 2.38542e-015 6.16232e-015
rhumerus -20.4115 -16.5988 -78.0695
rradius 25.2356
rwrist 31.6329
rhand -18.7078 -26.7545
rfingers 7.12502
rthumb 7.58719 -56.5984
lclavicle 2.38542e-015 6.16232e-015
lhumerus -22.0341 0.488083 86.0857
lradius 20.7832
lwrist 4.57308
lhand -22.7258 -3.51729
lfingers 7.12502
lthumb 3.70792 26.4302
rfemur -15.9608 -3.52231 21.3208
rtibia 22.3686
rfoot -14.6809 -1.46407
rtoes 2.64447
lfemur -15.45 8.11147 -17.9125
ltibia 21.5781
lfoot -11.4577 7.48841
ltoes -8.4024
